<svg xmlns="http://www.w3.org/2000/svg" xmlns:xlink="http://www.w3.org/1999/xlink" width="66" height="158" viewBox="0 0 66 158">
  <defs>
    <filter id="Ellipse_5" x="0" y="0" width="66" height="66" filterUnits="userSpaceOnUse">
      <feOffset input="SourceAlpha"/>
      <feGaussianBlur stdDeviation="5" result="blur"/>
      <feFlood flood-opacity="0.161"/>
      <feComposite operator="in" in2="blur"/>
      <feComposite in="SourceGraphic"/>
    </filter>
    <filter id="Ellipse_6" x="0" y="46" width="66" height="66" filterUnits="userSpaceOnUse">
      <feOffset input="SourceAlpha"/>
      <feGaussianBlur stdDeviation="5" result="blur-2"/>
      <feFlood flood-opacity="0.161"/>
      <feComposite operator="in" in2="blur-2"/>
      <feComposite in="SourceGraphic"/>
    </filter>
    <filter id="Ellipse_8" x="0" y="92" width="66" height="66" filterUnits="userSpaceOnUse">
      <feOffset input="SourceAlpha"/>
      <feGaussianBlur stdDeviation="5" result="blur-3"/>
      <feFlood flood-opacity="0.161"/>
      <feComposite operator="in" in2="blur-3"/>
      <feComposite in="SourceGraphic"/>
    </filter>
  </defs>
  <g id="icon" transform="translate(-884 -1674)">
    <g id="Group_463" data-name="Group 463">
      <g transform="matrix(1, 0, 0, 1, 884, 1674)" filter="url(#Ellipse_5)">
        <circle id="Ellipse_5-2" data-name="Ellipse 5" cx="18" cy="18" r="18" transform="translate(15 15)" fill="#23262a"/>
      </g>
      <path id="heart" d="M15.93,2.778a4.5,4.5,0,0,0-6.366,0l-.545.552-.541-.551,0,0a4.5,4.5,0,0,0-6.364,0l-.243.243a4.5,4.5,0,0,0,0,6.364L8.279,15.8,9,16.554l.017-.017.019.019.678-.716,6.456-6.455a4.505,4.505,0,0,0,0-6.364Zm-.553,5.811L9.02,14.947,2.663,8.589a3.375,3.375,0,0,1,0-4.773l.243-.243a3.375,3.375,0,0,1,4.771,0L9.016,4.935l1.346-1.362a3.375,3.375,0,0,1,4.773,0l.243.243a3.379,3.379,0,0,1,0,4.773Z" transform="translate(908.451 1698.541)" fill="#fff"/>
    </g>
    <g id="Group_464" data-name="Group 464">
      <g transform="matrix(1, 0, 0, 1, 884, 1674)" filter="url(#Ellipse_6)">
        <circle id="Ellipse_6-2" data-name="Ellipse 6" cx="18" cy="18" r="18" transform="translate(15 61)" fill="#fff"/>
      </g>
      <g id="git-compare-outline" transform="translate(907.75 1743.875)">
        <path id="Path_1" data-name="Path 1" d="M10.688,5.625l-2.25-2.25,2.25-2.25" fill="none" stroke="#000" stroke-linecap="round" stroke-linejoin="round" stroke-width="1.125"/>
        <path id="Path_2" data-name="Path 2" d="M7.277,12.375l2.25,2.25-2.25,2.25" fill="none" stroke="#000" stroke-linecap="round" stroke-linejoin="round" stroke-width="1.125"/>
        <path id="Path_3" data-name="Path 3" d="M5.625,3.375a1.688,1.688,0,1,1-3.375,0,1.688,1.688,0,0,1,3.375,0Z" fill="none" stroke="#000" stroke-linecap="round" stroke-linejoin="round" stroke-width="1.125"/>
        <path id="Path_4" data-name="Path 4" d="M15.75,14.625a1.688,1.688,0,1,1-1.688-1.647,1.688,1.688,0,0,1,1.688,1.647Z" fill="none" stroke="#000" stroke-linecap="round" stroke-linejoin="round" stroke-width="1.125"/>
        <path id="Path_5" data-name="Path 5" d="M9,3.375h2.953a2.109,2.109,0,0,1,2.109,2.109v7.453" fill="none" stroke="#000" stroke-linecap="round" stroke-linejoin="round" stroke-width="1.125"/>
        <path id="Path_6" data-name="Path 6" d="M8.965,14.625H6.012A2.109,2.109,0,0,1,3.9,12.516V5.063" fill="none" stroke="#000" stroke-linecap="round" stroke-linejoin="round" stroke-width="1.125"/>
      </g>
    </g>
    <g id="Group_465" data-name="Group 465">
      <g transform="matrix(1, 0, 0, 1, 884, 1674)" filter="url(#Ellipse_8)">
        <circle id="Ellipse_8-2" data-name="Ellipse 8" cx="18" cy="18" r="18" transform="translate(15 107)" fill="#fff"/>
      </g>
      <path id="shopping-bag-line" d="M12.5,6V4.525a3.5,3.5,0,1,0-7,0v3.5a.5.5,0,0,0,1,0V7h4V6h-4V4.525a2.5,2.5,0,0,1,5,0V8a.5.5,0,0,0,1,0V7H15v9H3V7H4.5V6H2V16.045A.955.955,0,0,0,2.955,17h12.09A.955.955,0,0,0,16,16.045V6Z" transform="translate(908 1789.975)"/>
    </g>
  </g>
</svg>
